# Blender v2.72 (sub 0) OBJ File: ''
# www.blender.org
o Icosphere.001_Icosphere
cpt data/texture/metalTexture.png
v 0.000000 0.000000 0.521916
v 0.525397 0.018591 0.671262
v 0.180037 -0.493937 0.671262
v 0.893865 0.031629 1.074697
v 0.670080 0.524018 0.996180
v -0.414133 -0.323861 0.671265
v -0.435979 0.293785 0.671262
v 0.144681 0.505425 0.671262
v 0.939534 0.342454 1.521916
v 1.321141 -0.788611 0.492640
v 0.705438 -0.475349 0.996179
v 0.616022 -0.787729 1.521916
v -0.704566 -0.550986 0.252353
v -0.234098 -0.817802 0.996180
v -0.558817 -0.829291 1.521916
v -0.741737 0.499820 0.252348
v -0.850116 -0.030078 0.996180
v -0.961388 0.275197 1.521916
v 1.260989 0.911618 0.492641
v -0.291300 0.799215 0.996179
v -0.035356 0.999375 1.521916
v 0.961388 -0.275197 1.521916
v 0.035356 -0.999375 1.521916
v -0.939534 -0.342454 1.521916
v -0.616022 0.787729 1.521916
v 0.558817 0.829291 1.521916
v 0.741737 -0.499820 1.969136
v 0.850116 0.030078 2.047652
v 0.435979 -0.293785 2.372571
v -0.246148 -0.859887 1.969136
v 2.206253 -0.809585 2.448322
v -0.144681 -0.505425 2.372571
v -0.893865 -0.031629 1.969136
v -0.670080 -0.524018 2.047652
v -0.525397 -0.018591 2.372571
v -0.306300 0.840342 1.969136
v -0.705438 0.475349 2.047654
v -0.180037 0.493937 2.372571
v 0.704566 0.550986 1.969132
v 2.149051 0.807431 2.448320
v 0.414133 0.323861 2.372568
v 1.298392 0.013505 3.246908
vt 0.000000 0.000000
vt 1.000000 0.000000
vt 1.000000 1.000000
vn 0.274800 -0.185100 -0.943500
vn 0.716700 0.220200 -0.661700
vn -0.091200 -0.318500 -0.943500
vn -0.331100 -0.011700 -0.943500
vn -0.113500 0.311300 -0.943500
vn 0.878000 0.346400 -0.330400
vn 0.671600 0.581200 0.459600
vn -0.256000 -0.950000 -0.178900
vn -0.982600 -0.050100 -0.178900
vn -0.160000 0.945900 -0.282200
vn 0.991500 0.035100 -0.125600
vn 0.333300 -0.914500 0.229100
vn -0.786900 -0.615400 -0.044600
vn -0.828500 0.558300 -0.044600
vn 0.266000 0.929400 0.255800
vn 0.709300 -0.243100 0.661700
vn -0.116300 -0.731500 0.671900
vn -0.716700 -0.220200 0.661700
vn -0.430900 0.613600 0.661700
vn 0.267300 -0.909100 -0.319400
vn 0.182900 0.919400 -0.348300
vn 0.503400 -0.339200 -0.794700
vn 0.730500 -0.169000 -0.661700
vn 0.263400 -0.888800 -0.375100
vn 0.478200 0.374000 -0.794700
vn 0.261000 0.204100 -0.943500
vn 0.834500 -0.056300 -0.548100
vn -0.167100 -0.583600 -0.794700
vn -0.258400 -0.499300 -0.827000
vn 0.204300 -0.811100 -0.548100
vn -0.606700 -0.021500 -0.794700
vn 0.146500 0.823500 -0.548100
vn -0.303100 0.468100 -0.830000
vn -0.207900 0.570400 -0.794700
vn 0.828500 0.115200 -0.548100
vn 0.781500 0.611100 0.125600
vn 0.773700 0.605100 -0.187600
vn 0.725800 -0.517000 0.453800
vn 0.822700 -0.554400 0.125600
vn 0.814600 -0.548900 -0.187600
vn 0.900300 -0.283400 -0.330400
vn -0.273000 -0.953800 0.125600
vn -0.270300 -0.944300 -0.187600
vn -0.076100 -0.953900 -0.290400
vn -0.991500 -0.035100 0.125600
vn -0.981600 -0.034700 -0.187600
vn -0.983700 -0.019500 -0.178900
vn -0.339700 0.932100 0.125600
vn -0.336400 0.922900 -0.187600
vn -0.322500 0.929500 -0.178900
vn 0.913900 -0.235900 0.330400
vn 0.981600 0.034700 0.187600
vn 0.894900 0.299900 0.330400
vn -0.034600 -0.960100 0.277700
vn 0.292400 -0.802100 -0.520800
vn 0.345000 0.742100 -0.574700
vn -0.878000 -0.346400 0.330400
vn -0.773700 -0.605100 0.187600
vn -0.547800 -0.768600 0.330400
vn -0.600700 0.728000 0.330400
vn -0.814600 0.548900 0.187600
vn -0.900300 0.283400 0.330400
vn 0.323900 -0.752300 -0.573700
vn 0.251000 0.876800 -0.410100
vn -0.047600 0.949900 0.309000
vn 0.707300 0.025000 -0.706500
vn 0.606700 0.021500 0.794700
vn 0.690300 0.292600 0.661700
vn 0.342400 -0.939500 -0.007600
vn -0.023700 0.065100 0.997600
vn 0.280400 0.924200 -0.259500
vn -0.405400 -0.317100 0.857400
vn -0.478200 -0.374000 0.794700
vn -0.386500 -0.642500 0.661700
vn -0.418800 0.282200 0.863100
vn -0.503400 0.339200 0.794700
vn -0.730500 0.169000 0.661700
vn 0.274600 0.959500 0.062800
vn -0.022000 -0.077000 0.996800
vn -0.120600 0.734200 0.668100
s off
f 1/1/1 2/2/1 3/3/1
f 4/1/2 2/2/2 5/3/2
f 1/1/3 3/2/3 6/3/3
f 1/1/4 6/2/4 7/3/4
f 1/1/5 7/2/5 8/3/5
f 4/1/6 5/2/6 9/3/6
f 10/1/7 11/2/7 12/3/7
f 13/1/8 14/2/8 15/3/8
f 16/1/9 17/2/9 18/3/9
f 19/1/10 20/2/10 21/3/10
f 4/1/11 9/2/11 22/3/11
f 10/1/12 12/2/12 23/3/12
f 13/1/13 15/2/13 24/3/13
f 16/1/14 18/2/14 25/3/14
f 19/1/15 21/2/15 26/3/15
f 27/1/16 28/2/16 29/3/16
f 30/1/17 31/2/17 32/3/17
f 33/1/18 34/2/18 35/3/18
f 36/1/19 37/2/19 38/3/19
f 39/1/20 40/2/20 41/3/20
f 3/1/21 11/2/21 10/3/21
f 3/1/22 2/2/22 11/3/22
f 2/1/23 4/2/23 11/3/23
f 5/1/24 8/2/24 19/3/24
f 5/1/25 2/2/25 8/3/25
f 2/1/26 1/2/26 8/3/26
f 6/1/27 14/2/27 13/3/27
f 6/1/28 3/2/28 14/3/28
f 3/1/29 10/2/29 14/3/29
f 7/1/30 17/2/30 16/3/30
f 7/1/31 6/2/31 17/3/31
f 6/1/32 13/2/32 17/3/32
f 8/1/33 20/2/33 19/3/33
f 8/1/34 7/2/34 20/3/34
f 7/1/35 16/2/35 20/3/35
f 9/1/36 26/2/36 39/3/36
f 9/1/37 5/2/37 26/3/37
f 5/1/38 19/2/38 26/3/38
f 12/1/39 22/2/39 27/3/39
f 12/1/40 11/2/40 22/3/40
f 11/1/41 4/2/41 22/3/41
f 15/1/42 23/2/42 30/3/42
f 15/1/43 14/2/43 23/3/43
f 14/1/44 10/2/44 23/3/44
f 18/1/45 24/2/45 33/3/45
f 18/1/46 17/2/46 24/3/46
f 17/1/47 13/2/47 24/3/47
f 21/1/48 25/2/48 36/3/48
f 21/1/49 20/2/49 25/3/49
f 20/1/50 16/2/50 25/3/50
f 22/1/51 28/2/51 27/3/51
f 22/1/52 9/2/52 28/3/52
f 9/1/53 39/2/53 28/3/53
f 23/1/54 31/2/54 30/3/54
f 23/1/55 12/2/55 31/3/55
f 12/1/56 27/2/56 31/3/56
f 24/1/57 34/2/57 33/3/57
f 24/1/58 15/2/58 34/3/58
f 15/1/59 30/2/59 34/3/59
f 25/1/60 37/2/60 36/3/60
f 25/1/61 18/2/61 37/3/61
f 18/1/62 33/2/62 37/3/62
f 26/1/63 40/2/63 39/3/63
f 26/1/64 21/2/64 40/3/64
f 21/1/65 36/2/65 40/3/65
f 29/1/66 41/2/66 42/3/66
f 29/1/67 28/2/67 41/3/67
f 28/1/68 39/2/68 41/3/68
f 32/1/69 29/2/69 42/3/69
f 32/1/70 31/2/70 29/3/70
f 31/1/71 27/2/71 29/3/71
f 35/1/72 32/2/72 42/3/72
f 35/1/73 34/2/73 32/3/73
f 34/1/74 30/2/74 32/3/74
f 38/1/75 35/2/75 42/3/75
f 38/1/76 37/2/76 35/3/76
f 37/1/77 33/2/77 35/3/77
f 41/1/78 38/2/78 42/3/78
f 41/1/79 40/2/79 38/3/79
f 40/1/80 36/2/80 38/3/80
